<svg width="142" height="50" viewBox="0 0 142 50" fill="none" xmlns="http://www.w3.org/2000/svg">
<path d="M36.6734 20.5C36.8734 25.22 36.0534 29.22 34.2134 32.5C32.4934 33.02 30.2134 33.46 27.3734 33.82C24.5334 34.18 21.4334 34.36 18.0734 34.36C12.1134 34.36 6.11344 33.74 0.0734376 32.5C0.513438 28.58 1.33344 24.94 2.53344 21.58C5.25344 21.98 8.35344 22.34 11.8334 22.66C15.3134 22.94 18.6134 23.08 21.7334 23.08C23.8534 23.08 25.9734 22.98 28.0934 22.78C28.0134 20.34 27.8134 17.46 27.4934 14.14C27.2134 10.78 26.9134 7.46 26.5934 4.18L26.2334 0.579998L35.8934 0.0399973C36.4134 7.72 36.6734 14.54 36.6734 20.5ZM21.7334 18.76C20.2534 18.72 18.4134 18.8 16.2134 19C14.0534 19.2 12.1134 19.46 10.3934 19.78C10.2334 19.5 10.1134 19.08 10.0334 18.52C9.95344 17.96 9.91344 17.38 9.91344 16.78C9.91344 15.9 9.99344 15.3 10.1534 14.98C11.2734 14.58 12.3334 14.26 13.3334 14.02C12.3734 12.82 11.8934 11.6 11.8934 10.36C11.8934 9.36 12.2134 8.4 12.8534 7.48C13.5334 6.56 14.3734 5.82 15.3734 5.26C16.4134 4.7 17.4134 4.42 18.3734 4.42C19.2134 4.42 19.9134 4.62 20.4734 5.02C21.4734 5.62 21.9734 6.56 21.9734 7.84C21.9734 8.84 21.6534 9.76 21.0134 10.6C19.9734 10.08 19.0134 9.82 18.1334 9.82C17.5734 9.82 17.1134 9.92 16.7534 10.12C16.3934 10.32 16.1934 10.62 16.1534 11.02C16.0734 11.7 16.3134 12.48 16.8734 13.36C18.7534 13.08 20.3534 12.94 21.6734 12.94C22.1934 12.94 22.8934 12.98 23.7734 13.06L23.9534 13.42C23.8334 14.1 23.5134 15.06 22.9934 16.3C22.4734 17.54 22.0534 18.36 21.7334 18.76ZM43.7155 49.36C42.3155 48.84 40.6755 47.94 38.7955 46.66C36.8755 45.42 35.4955 44.28 34.6555 43.24C36.5755 40.4 38.4555 37.02 40.2955 33.1C42.2155 29.1 43.7955 25.06 45.0355 20.98L53.4355 23.8C52.7555 27.76 51.5155 32.1 49.7155 36.82C48.5955 39.74 47.4355 42.34 46.2355 44.62C45.0755 46.94 44.2355 48.52 43.7155 49.36ZM69.5736 22.84C70.2136 22.84 70.6336 23.3 70.8336 24.22C71.0736 25.14 71.1936 26.54 71.1936 28.42C71.1936 30.34 71.0736 31.76 70.8336 32.68C70.5936 33.56 70.1736 34 69.5736 34C67.3736 34 65.2336 33.86 63.1536 33.58C61.1136 33.3 59.3936 32.86 57.9936 32.26C57.6336 30.82 57.3336 24.32 57.0936 12.76L56.7336 0.579998L66.3936 0.0399973C66.7536 6 66.9336 11.48 66.9336 16.48C66.9336 18 66.8936 20.04 66.8136 22.6C67.8136 22.76 68.7336 22.84 69.5736 22.84ZM112.962 22.84C113.602 22.84 114.022 23.3 114.222 24.22C114.462 25.14 114.582 26.54 114.582 28.42C114.582 30.34 114.462 31.76 114.222 32.68C113.982 33.56 113.562 34 112.962 34C111.362 34 109.862 33.7 108.462 33.1C107.102 32.5 105.902 31.4 104.862 29.8H104.322C103.922 31.24 103.262 32.34 102.342 33.1C101.422 33.86 100.342 34.24 99.102 34.24C96.742 34.24 95.002 32.76 93.882 29.8H93.342C92.502 31.24 91.362 32.34 89.922 33.1C88.522 33.86 87.022 34.24 85.422 34.24C83.862 34.24 82.402 33.88 81.042 33.16C79.682 32.4 78.562 31.28 77.682 29.8H77.142C76.302 31.12 75.202 32.16 73.842 32.92C72.522 33.64 71.102 34 69.582 34C68.982 34 68.562 33.56 68.322 32.68C68.082 31.76 67.962 30.34 67.962 28.42C67.962 26.54 68.082 25.14 68.322 24.22C68.522 23.3 68.942 22.84 69.582 22.84C73.942 22.84 76.402 20.68 76.962 16.36H81.942C82.102 18.88 82.542 20.66 83.262 21.7C83.982 22.7 84.982 23.2 86.262 23.2C88.022 23.2 89.322 22.56 90.162 21.28C91.042 19.96 91.722 18.36 92.202 16.48L97.242 17.26C97.202 17.58 97.182 18.02 97.182 18.58C97.182 20.06 97.442 21.18 97.962 21.94C98.522 22.7 99.242 23.08 100.122 23.08C102.202 23.08 103.342 20.84 103.542 16.36H108.582C108.582 18.08 108.662 19.38 108.822 20.26C108.982 21.1 109.362 21.74 109.962 22.18C110.602 22.62 111.602 22.84 112.962 22.84ZM132.261 11.32C134.021 11.32 135.581 11.84 136.941 12.88C138.301 13.88 139.341 15.3 140.061 17.14C140.821 18.94 141.201 21 141.201 23.32C141.201 26.48 140.521 29.12 139.161 31.24C137.801 33.32 135.901 34.36 133.461 34.36C131.861 34.36 130.181 33.92 128.421 33.04C126.701 32.16 125.061 31 123.501 29.56C122.181 31 120.621 32.1 118.821 32.86C117.061 33.62 115.101 34 112.941 34C112.341 34 111.921 33.56 111.681 32.68C111.441 31.76 111.321 30.34 111.321 28.42C111.321 26.54 111.441 25.14 111.681 24.22C111.881 23.3 112.301 22.84 112.941 22.84C114.741 22.84 116.301 22.56 117.621 22C118.981 21.4 120.101 20.68 120.981 19.84C121.901 19 122.961 17.88 124.161 16.48C125.601 14.76 126.881 13.48 128.001 12.64C129.161 11.76 130.581 11.32 132.261 11.32ZM132.981 24.04C133.701 24.04 134.381 23.98 135.021 23.86C135.661 23.7 136.061 23.52 136.221 23.32C136.181 22.76 135.781 22.28 135.021 21.88C134.301 21.48 133.301 21.28 132.021 21.28C130.221 21.28 128.621 21.7 127.221 22.54C127.941 23.06 128.821 23.44 129.861 23.68C130.901 23.92 131.941 24.04 132.981 24.04Z" fill="black"/>
</svg>
